<mxfile host="app.diagrams.net" agent="Mozilla/5.0 (Windows NT 10.0; Win64; x64) AppleWebKit/537.36 (KHTML, like Gecko) Chrome/130.0.0.0 Safari/537.36 Edg/130.0.0.0" version="24.8.3">
  <diagram id="icW2JwHxA_xLOt9uTunf" name="Circle">
    <mxGraphModel grid="1" page="1" gridSize="10" guides="1" tooltips="1" connect="1" arrows="1" fold="1" pageScale="1" pageWidth="850" pageHeight="1100" math="0" shadow="0">
      <root>
        <mxCell id="0" />
        <mxCell id="1" parent="0" />
        <mxCell id="iCZJJaEn_B_Bw3TxacVW-1" value="MySavings.java" style="swimlane;fontStyle=1;align=center;verticalAlign=top;childLayout=stackLayout;horizontal=1;startSize=26;horizontalStack=0;resizeParent=1;resizeParentMax=0;resizeLast=0;collapsible=1;marginBottom=0;" vertex="1" parent="1">
          <mxGeometry x="80" y="70" width="310" height="210" as="geometry" />
        </mxCell>
        <mxCell id="iCZJJaEn_B_Bw3TxacVW-2" value="+total: double&#xa;&#xa;" style="text;strokeColor=none;fillColor=none;align=left;verticalAlign=top;spacingLeft=4;spacingRight=4;overflow=hidden;rotatable=0;points=[[0,0.5],[1,0.5]];portConstraint=eastwest;" vertex="1" parent="iCZJJaEn_B_Bw3TxacVW-1">
          <mxGeometry y="26" width="310" height="24" as="geometry" />
        </mxCell>
        <mxCell id="iCZJJaEn_B_Bw3TxacVW-3" value="" style="line;strokeWidth=1;fillColor=none;align=left;verticalAlign=middle;spacingTop=-1;spacingLeft=3;spacingRight=3;rotatable=0;labelPosition=right;points=[];portConstraint=eastwest;strokeColor=inherit;" vertex="1" parent="iCZJJaEn_B_Bw3TxacVW-1">
          <mxGeometry y="50" width="310" height="8" as="geometry" />
        </mxCell>
        <mxCell id="iCZJJaEn_B_Bw3TxacVW-4" value="+ MySavings(): constructor&#xa;+ MySavings(double t): overloading constructor&#xa;+ getTotal(): double&#xa;+ setTotal(double t): void&#xa;+ addPennies(): void&#xa;+ addNickels(): void&#xa;+ addDimes(): void&#xa;+ addQuarters(): void&#xa;+ showTotal(): string&#xa;+ takeMoney(double newTotal): string" style="text;strokeColor=none;fillColor=none;align=left;verticalAlign=top;spacingLeft=4;spacingRight=4;overflow=hidden;rotatable=0;points=[[0,0.5],[1,0.5]];portConstraint=eastwest;" vertex="1" parent="iCZJJaEn_B_Bw3TxacVW-1">
          <mxGeometry y="58" width="310" height="152" as="geometry" />
        </mxCell>
        <mxCell id="iCZJJaEn_B_Bw3TxacVW-5" value="&lt;p style=&quot;margin:0px;margin-top:4px;text-align:center;&quot;&gt;&lt;i&gt;&lt;b&gt;Test&lt;/b&gt;&lt;/i&gt;&lt;span style=&quot;font-weight: 700;&quot;&gt;&lt;i&gt;MySavings&lt;/i&gt;&lt;/span&gt;&lt;i&gt;&lt;b&gt;.java&lt;/b&gt;&lt;/i&gt;&lt;/p&gt;&lt;hr size=&quot;1&quot;&gt;&lt;p style=&quot;margin:0px;margin-left:4px;&quot;&gt;&lt;/p&gt;&lt;p style=&quot;margin:0px;margin-left:4px;&quot;&gt;+ main()&lt;/p&gt;&lt;p style=&quot;margin:0px;margin-left:4px;&quot;&gt;&lt;br&gt;&lt;/p&gt;" style="verticalAlign=top;align=left;overflow=fill;fontSize=12;fontFamily=Helvetica;html=1;" vertex="1" parent="1">
          <mxGeometry x="480" y="70" width="230" height="200" as="geometry" />
        </mxCell>
        <mxCell id="iCZJJaEn_B_Bw3TxacVW-6" value="" style="endArrow=block;dashed=1;endFill=0;endSize=12;html=1;rounded=0;" edge="1" parent="1">
          <mxGeometry width="160" relative="1" as="geometry">
            <mxPoint x="390" y="180" as="sourcePoint" />
            <mxPoint x="480" y="180" as="targetPoint" />
          </mxGeometry>
        </mxCell>
        <mxCell id="0Jgi05FjBUoum17U9Rqu-1" value="total: $0.00" style="rounded=0;whiteSpace=wrap;html=1;" vertex="1" parent="1">
          <mxGeometry x="570" y="145" width="120" height="60" as="geometry" />
        </mxCell>
        <mxCell id="0Jgi05FjBUoum17U9Rqu-2" value="amount" style="text;html=1;align=center;verticalAlign=middle;whiteSpace=wrap;rounded=0;fontSize=16;" vertex="1" parent="1">
          <mxGeometry x="500" y="155" width="60" height="30" as="geometry" />
        </mxCell>
      </root>
    </mxGraphModel>
  </diagram>
</mxfile>
